<svg width="292" height="76" viewBox="0 0 292 76" fill="none" xmlns="http://www.w3.org/2000/svg">
<g clip-path="url(#clip0_22_53)">
<path d="M82.0464 2.63358C72.8003 4.28992 67.4888 5.45911 67.1937 5.84884C66.9478 6.23857 66.7511 13.4485 66.7511 21.9251C66.7511 39.0732 67.1937 43.1166 69.7019 49.5472C72.3577 56.3674 76.4397 62.0672 82.2923 67.1824C85.7841 70.2028 92.276 74.0514 95.817 75.2205L98.1777 76L102.358 74.1001C104.62 73.0283 108.211 70.8848 110.375 69.3259L114.211 66.4516H120.358C126.506 66.4516 126.555 66.4516 130.244 64.6492C141.162 59.3391 145.883 46.1858 140.67 35.6631C138.85 31.9607 135.162 28.1608 131.719 26.3096L128.719 24.7507V15.5921C128.719 7.99235 128.572 6.28728 127.981 5.80013C127.342 5.26424 98.4236 -0.143234 96.9974 0.0029068C96.7515 0.0516281 90.0137 1.22081 82.0464 2.63358ZM109.981 6.0437C116.916 7.2616 123.063 8.33336 123.703 8.47951C124.785 8.72309 124.785 8.86924 124.785 16.0305V23.3379H122.326H119.867V18.515C119.867 15.251 119.67 13.546 119.276 13.205C118.637 12.6691 99.6531 9.21025 97.4892 9.21025C95.0793 9.21025 76.9315 12.6204 76.243 13.205C75.161 14.0819 75.6036 40.3885 76.7348 44.2858C79.1939 52.5676 85.1939 59.8263 92.7186 63.6261C94.981 64.7953 97.2433 65.7209 97.7843 65.7209C98.7187 65.7209 101.965 64.2594 104.866 62.5544C106.391 61.6775 106.391 61.6775 108.457 63.0415L110.522 64.3569L108.407 66.0619C107.276 66.9388 104.375 68.6926 101.965 69.8618L97.5875 72.0053L94.9318 70.7874C87.9973 67.767 80.5217 61.1903 76.5873 54.5649C74.1774 50.5702 71.9643 44.4807 71.2265 39.9014C70.7839 37.2707 70.4396 8.7718 70.8331 8.72309C70.8823 8.67437 76.784 7.60262 83.9644 6.336C91.1448 5.02067 97.0957 3.94891 97.1941 3.9002C97.3416 3.9002 103.096 4.82581 109.981 6.0437ZM107.079 14.569C111.555 15.3972 115.342 16.0305 115.588 16.0305C115.785 16.0305 115.932 17.7843 115.932 19.8791V23.7276L113.473 24.5558C110.375 25.5789 105.604 29.0377 103.588 31.7171C97.7843 39.5604 97.3908 49.4497 102.653 57.293L103.686 58.8519L100.588 60.4109L97.4892 61.9698L94.2924 60.3134C89.8661 58.0238 85.1448 53.2009 82.8333 48.5728C80.0299 42.9705 79.5381 39.8527 79.5381 27.1378V16.1279L83.1283 15.5433C85.0464 15.2023 88.7841 14.5203 91.3416 14.0819C97.5875 12.9127 97.7843 12.9127 107.079 14.569ZM128.326 28.7941C139.736 33.958 142.391 49.6446 133.244 57.975C129.85 61.0929 126.309 62.5056 121.342 62.7005C115.981 62.9441 112.588 61.7749 108.948 58.4135C100.194 50.5215 101.03 36.8323 110.621 30.5479C114.358 28.0634 117.407 27.2352 121.834 27.3813C124.539 27.5275 126.309 27.8685 128.326 28.7941Z" fill="#26A687"/>
<path d="M123.358 41.5577L117.604 47.2088L115.096 44.6756C112.981 42.5808 112.391 42.2398 111.309 42.5321C109.047 43.0679 109.686 44.6756 113.67 48.6216C116.424 51.3009 117.506 52.1291 118.244 51.8855C118.735 51.7394 122.129 48.6216 125.719 45.0166C132.113 38.6348 132.26 38.4399 131.572 37.3681C130.195 35.2734 129.358 35.7118 123.358 41.5577Z" fill="#26A687"/>
<path d="M16.9307 18.7586C16.7832 19.0022 12.9963 27.6249 8.4716 37.9527C3.99613 48.2318 0.160012 56.8546 0.0124693 57.0982C-0.135074 57.293 1.04527 57.4392 2.56988 57.3417L5.32402 57.1956L6.94699 53.5419L8.52078 49.8882L17.3734 49.742L26.1768 49.6446L27.8489 53.5419L29.4719 57.4392H31.8818C33.2096 57.4392 34.2916 57.293 34.2916 57.1469C34.2916 56.8059 18.7012 21.097 17.816 19.4893C17.5209 18.856 17.0783 18.515 16.9307 18.7586ZM20.9636 37.7579C22.5865 41.5577 23.9636 44.8217 23.9636 44.9679C23.9636 45.114 20.9636 45.2601 17.3242 45.2601C13.6848 45.2601 10.6847 45.2114 10.6847 45.114C10.6847 45.0166 11.9143 42.1423 13.4389 38.6348C14.9635 35.1759 16.3897 31.8145 16.6356 31.1812C16.9307 30.4992 17.275 30.2069 17.5209 30.4505C17.7668 30.694 19.2914 34.0067 20.9636 37.7579Z" fill="#26A687"/>
<path d="M167.916 19.0996C163.982 20.3662 160.736 24.3609 160.687 27.9172C160.687 30.3043 162.506 33.4221 165.015 35.1759C166.293 36.0528 169.146 37.8553 171.359 39.1706C178.294 43.2628 180.703 46.8191 178.638 49.9369C176.621 52.9573 170.031 53.4932 165.064 50.9599L162.408 49.5959L161.326 50.9599C159.752 52.8599 159.9 53.347 162.31 54.7111C167.867 57.9263 175.392 58.3161 179.72 55.6854C182.867 53.7367 184.441 50.9112 184.441 47.2575C184.441 42.3859 182.474 40.1937 173.572 34.8349C167.523 31.2299 166.097 29.8171 166.097 27.4788C166.097 23.7764 172.49 21.9251 177.654 24.0686L179.572 24.8968L180.703 23.5328C181.343 22.7533 181.835 21.8764 181.835 21.5841C181.835 21.2918 180.654 20.5611 179.277 19.9765C176.13 18.6612 170.572 18.2227 167.916 19.0996Z" fill="#26A687"/>
<path d="M228.163 19.197C211.933 23.7276 208.884 46.2832 223.393 54.7111C229.491 58.2673 239.967 58.2673 245.426 54.7111L247.245 53.5419V44.2858V35.0298H241.393C235.737 35.0298 235.54 35.0785 235.245 36.1015C234.409 39.2194 234.655 39.4142 238.639 39.4142H242.327V45.2601C242.327 51.983 242.671 51.5445 236.966 52.5676C227.081 54.3213 219.212 48.037 219.163 38.1963C219.114 33.1786 220.294 30.1582 223.491 27.1865C225.901 24.8968 227.622 24.0199 231.163 23.3866C234.655 22.7533 238.688 23.3866 241.983 25.1404C243.262 25.8711 244.393 26.3096 244.442 26.2122C244.54 26.1147 245.081 25.3353 245.721 24.4584L246.803 22.8995L244.491 21.5841C243.262 20.8534 241.294 19.9765 240.212 19.5868C237.163 18.515 231.261 18.3202 228.163 19.197Z" fill="#26A687"/>
<path d="M260.524 37.6604V56.952H262.983H265.442L265.541 43.7012L265.688 30.4505L278.426 43.7987C285.41 51.1548 291.311 57.2443 291.557 57.3417C291.803 57.4392 292 49.3036 292 38.245V18.9535H289.541H287.082L286.984 32.2042L286.836 45.455L274.147 32.0581C267.164 24.702 261.213 18.6124 260.967 18.5637C260.721 18.4663 260.524 26.0173 260.524 37.6604Z" fill="#26A687"/>
<path d="M45.1115 38.1963V57.4392H47.5705H50.0295V38.1963V18.9535H47.5705H45.1115V38.1963Z" fill="#26A687"/>
<path d="M196.589 37.9527V56.952H199.048H201.507V37.9527V18.9535H199.048H196.589V37.9527Z" fill="#26A687"/>
</g>
<defs>
<clipPath id="clip0_22_53">
<rect width="292" height="76" fill="white" transform="matrix(1 0 0 -1 0 76)"/>
</clipPath>
</defs>
</svg>
