<svg width="63" height="63" viewBox="0 0 63 63" fill="none" xmlns="http://www.w3.org/2000/svg">
<path d="M16.4062 52.5C12.6437 52.5 9.40625 51.1437 6.69375 48.4312C3.98125 45.7187 2.625 42.4812 2.625 38.7187C2.625 35.3062 3.70781 32.2984 5.87344 29.6953C8.03906 27.0922 10.8281 25.5281 14.2406 25.0031C15.1156 20.7594 17.1719 17.2922 20.4094 14.6016C23.6469 11.9109 27.3875 10.5656 31.6312 10.5656C36.575 10.5656 40.7203 12.3484 44.0672 15.9141C47.4141 19.4797 49.0875 23.7562 49.0875 28.7437V30.3187C52.2375 30.2312 54.9062 31.2484 57.0937 33.3703C59.2812 35.4922 60.375 38.1719 60.375 41.4094C60.375 44.4281 59.2812 47.0312 57.0937 49.2187C54.9062 51.4062 52.3031 52.5 49.2844 52.5H33.4687C32.4187 52.5 31.5 52.1062 30.7125 51.3187C29.925 50.5312 29.5312 49.6125 29.5312 48.5625V31.6312L24.0844 37.0781L21.2625 34.2562L31.5 24.0187L41.7375 34.2562L38.9156 37.0781L33.4687 31.6312V48.5625H49.2844C51.2531 48.5625 52.9375 47.8625 54.3375 46.4625C55.7375 45.0625 56.4375 43.3781 56.4375 41.4094C56.4375 39.4406 55.7375 37.7562 54.3375 36.3562C52.9375 34.9562 51.2531 34.2562 49.2844 34.2562H45.15V28.7437C45.15 24.85 43.8266 21.5031 41.1797 18.7031C38.5328 15.9031 35.2625 14.5031 31.3687 14.5031C27.475 14.5031 24.1937 15.9031 21.525 18.7031C18.8562 21.5031 17.5219 24.85 17.5219 28.7437H16.275C13.5625 28.7437 11.2656 29.6953 9.38437 31.5984C7.50312 33.5016 6.5625 35.8531 6.5625 38.6531C6.5625 41.3656 7.52345 43.6953 9.44534 45.6422C11.3672 47.5891 13.6875 48.5625 16.4062 48.5625H25.5937V52.5H16.4062Z" fill="#767676"/>
</svg>
