<svg width="123" height="32" viewBox="0 0 123 32" fill="none" xmlns="http://www.w3.org/2000/svg">
<g clip-path="url(#clip0_51_192)">
<path d="M34.392 1.10888C30.5163 1.80628 28.2898 2.29857 28.1661 2.46267C28.0631 2.62677 27.9806 5.66255 27.9806 9.23164C27.9806 16.4519 28.1661 18.1544 29.2175 20.862C30.3308 23.7337 32.0419 26.1336 34.4951 28.2873C35.9588 29.5591 38.6801 31.1795 40.1644 31.6718L41.154 32L42.9063 31.2C43.8546 30.7488 45.3595 29.8462 46.2666 29.1899L47.8746 27.9796H50.4516C53.0285 27.9796 53.0491 27.9796 54.5953 27.2207C59.172 24.9849 61.1511 19.4466 58.9658 15.016C58.203 13.4571 56.6569 11.8572 55.2138 11.0777L53.9562 10.4213V6.56508C53.9562 3.3652 53.8944 2.64728 53.647 2.44216C53.379 2.21652 41.257 -0.0603104 40.6592 0.00122452C40.5561 0.0217381 37.7318 0.514027 34.392 1.10888ZM46.1017 2.54472C49.0085 3.05752 51.5854 3.50878 51.8534 3.57032C52.307 3.67288 52.307 3.73442 52.307 6.74969V9.82649H51.2762H50.2454V7.7958C50.2454 6.42149 50.163 5.70357 49.998 5.55999C49.73 5.33435 41.7724 3.878 40.8653 3.878C39.8552 3.878 32.248 5.31384 31.9594 5.55999C31.5059 5.9292 31.6914 17.0057 32.1656 18.6467C33.1963 22.1337 35.7114 25.19 38.8656 26.7899C39.8139 27.2822 40.7623 27.672 40.989 27.672C41.3807 27.672 42.7414 27.0566 43.9577 26.3387C44.5968 25.9695 44.5968 25.9695 45.4626 26.5438L46.3285 27.0976L45.442 27.8155C44.9678 28.1848 43.7515 28.9232 42.7414 29.4155L40.9066 30.318L39.7933 29.8052C36.8865 28.5335 33.753 25.7643 32.1037 22.9747C31.0935 21.2927 30.1658 18.7287 29.8566 16.8006C29.6711 15.6929 29.5268 3.69339 29.6917 3.67288C29.7123 3.65237 32.1862 3.2011 35.196 2.66779C38.2059 2.11396 40.7004 1.6627 40.7416 1.64219C40.8035 1.64219 43.2155 2.03192 46.1017 2.54472ZM44.8854 6.13432C46.7614 6.48303 48.3488 6.74969 48.4519 6.74969C48.5343 6.74969 48.5962 7.48812 48.5962 8.37014V9.99059L47.5654 10.3393C46.2666 10.77 44.2669 12.2264 43.4217 13.3546C40.989 16.657 40.8241 20.8209 43.03 24.1234L43.4629 24.7798L42.1641 25.4361L40.8653 26.0925L39.5253 25.3951C37.6699 24.4311 35.6908 22.4004 34.7219 20.4517C33.5468 18.0928 33.3406 16.7801 33.3406 11.4264V6.79071L34.8456 6.54457C35.6496 6.40098 37.2164 6.11381 38.2884 5.9292C40.9066 5.43691 40.989 5.43691 44.8854 6.13432ZM53.7913 12.1238C58.5741 14.2981 59.6874 20.903 55.8529 24.4105C54.4304 25.7233 52.9461 26.3182 50.8639 26.4002C48.6168 26.5028 47.1943 26.0105 45.6688 24.5952C41.9992 21.2722 42.3497 15.5083 46.3697 12.8623C47.9365 11.8162 49.2146 11.4675 51.0701 11.529C52.2039 11.5905 52.9461 11.7341 53.7913 12.1238Z" fill="white"/>
<path d="M51.7091 17.498L49.297 19.8774L48.2457 18.8108C47.3592 17.9287 47.1118 17.7852 46.6583 17.9082C45.7099 18.1339 45.9779 18.8108 47.6478 20.4722C48.8023 21.6004 49.2558 21.9491 49.5651 21.8465C49.7712 21.785 51.1937 20.4722 52.6986 18.9543C55.3786 16.2673 55.4405 16.1852 55.1519 15.734C54.5746 14.8519 54.2242 15.0365 51.7091 17.498Z" fill="white"/>
<path d="M7.09699 7.89835C7.03514 8.00091 5.44774 11.6315 3.55111 15.9801C1.67509 20.3081 0.0670737 23.9388 0.00522687 24.0413C-0.0566199 24.1234 0.438154 24.1849 1.07724 24.1439L2.23171 24.0823L2.91203 22.5439L3.57172 21.0055L7.28253 20.944L10.9727 20.903L11.6737 22.5439L12.354 24.1849H13.3641C13.9208 24.1849 14.3743 24.1234 14.3743 24.0618C14.3743 23.9182 7.83915 8.88293 7.46807 8.20603C7.34438 7.93937 7.15884 7.79579 7.09699 7.89835ZM8.78747 15.898C9.46778 17.498 10.045 18.8723 10.045 18.9338C10.045 18.9954 8.78747 19.0569 7.26192 19.0569C5.73636 19.0569 4.47881 19.0364 4.47881 18.9954C4.47881 18.9543 4.9942 17.7441 5.63328 16.2673C6.27237 14.8109 6.87022 13.3956 6.9733 13.1289C7.09699 12.8418 7.2413 12.7187 7.34438 12.8212C7.44746 12.9238 8.08654 14.3186 8.78747 15.898Z" fill="white"/>
<path d="M70.3869 8.04193C68.7376 8.57525 67.377 10.2572 67.3564 11.7546C67.3564 12.7597 68.1192 14.0725 69.1706 14.8109C69.7066 15.1801 70.9023 15.9391 71.83 16.4929C74.7368 18.2159 75.7469 19.7133 74.8811 21.0261C74.0358 22.2978 71.2734 22.5234 69.1912 21.4568L68.0779 20.8825L67.6244 21.4568C66.9647 22.2568 67.0265 22.4619 68.0367 23.0362C70.3663 24.39 73.5205 24.5541 75.3346 23.4465C76.654 22.626 77.3137 21.4363 77.3137 19.8979C77.3137 17.8467 76.4891 16.9236 72.7577 14.6673C70.222 13.1494 69.6241 12.5546 69.6241 11.57C69.6241 10.0111 72.3041 9.23163 74.4688 10.1342L75.2728 10.4829L75.7469 9.90853C76.0149 9.58034 76.2211 9.21112 76.2211 9.08805C76.2211 8.96497 75.7263 8.65729 75.1491 8.41115C73.8297 7.85732 71.5001 7.67272 70.3869 8.04193Z" fill="white"/>
<path d="M95.6409 8.08296C88.8378 9.99058 87.5596 19.4877 93.6412 23.0362C96.1975 24.5336 100.589 24.5336 102.877 23.0362L103.64 22.5439V18.6467V14.7494H101.187C98.8157 14.7494 98.7333 14.7699 98.6096 15.2006C98.2591 16.5134 98.3622 16.5955 100.032 16.5955H101.578V19.0569C101.578 21.8876 101.723 21.703 99.3311 22.1337C95.1874 22.8721 91.8889 20.2261 91.8683 16.0827C91.8476 13.9699 92.3424 12.6982 93.6824 11.4469C94.6926 10.4829 95.4141 10.1137 96.8985 9.847C98.3622 9.58034 100.053 9.847 101.434 10.5854C101.97 10.8931 102.444 11.0777 102.465 11.0367C102.506 10.9957 102.733 10.6675 103.001 10.2983L103.454 9.64188L102.485 9.08805C101.97 8.78037 101.145 8.41116 100.692 8.24706C99.4136 7.7958 96.9397 7.71375 95.6409 8.08296Z" fill="white"/>
<path d="M109.206 15.857V23.9798H110.237H111.268L111.309 18.4005L111.371 12.8212L116.71 18.4415C119.638 21.5389 122.111 24.1029 122.214 24.1439C122.318 24.1849 122.4 20.7594 122.4 16.1032V7.98041H121.369H120.338L120.297 13.5597L120.235 19.139L114.917 13.4981C111.989 10.4008 109.495 7.83682 109.392 7.81631C109.289 7.77529 109.206 10.9547 109.206 15.857Z" fill="white"/>
<path d="M18.9097 16.0827V24.1849H19.9404H20.9712V16.0827V7.9804H19.9404H18.9097V16.0827Z" fill="white"/>
<path d="M82.4058 15.9801V23.9798H83.4365H84.4673V15.9801V7.98041H83.4365H82.4058V15.9801Z" fill="white"/>
</g>
<defs>
<clipPath id="clip0_51_192">
<rect width="122.4" height="32" fill="white" transform="matrix(1 0 0 -1 0 32)"/>
</clipPath>
</defs>
</svg>
